<svg width="1281px" height="603px" viewBox="-109 -70 1281 603" xmlns="http://www.w3.org/2000/svg" xmlns:xlink="http://www.w3.org/1999/xlink" style="width: 1281px; height: 603px;"><style>.no-tooltips { pointer-events: none; }</style><g transform="matrix(1, 0, 0, 1, 15, 15)" class="no-tooltips area excluded"><g transform="matrix(1, 0, 0, 1, 0, 0)"><path stroke="#E6E6E6" fill="#FFFFCD" stroke-width="3" stroke-linecap="butt" stroke-linejoin="miter" stroke-miterlimit="10" d="M 5,0 L 262,0 C 264.23857625084605,0 267,2.761423749153968 267,5 L 267,52 C 267,54.23857625084603 264.23857625084605,57 262,57 L 5,57 C 2.761423749153968,57 0,54.23857625084603 0,52 L 0,5 C 0,2.761423749153968 2.761423749153968,0 5,0 z" transform="matrix(1, 0, 0, 1, 1.5, 1.5)"/><g transform="matrix(1, 0, 0, 1, 6.261423749153968, 4.261423749153968)"><text x="128.73857625084605" y="17.9356201171875" style="font: normal bold 21px &quot;Roboto&quot;" text-anchor="middle" fill="#1C1C1C" transform="matrix(1, 0, 0, 1, 0, 0)">Rat Elimination Strategy</text><text x="128.73857625084605" y="41.8497802734375" style="font: normal bold 21px &quot;Roboto&quot;" text-anchor="middle" fill="#1C1C1C" transform="matrix(1, 0, 0, 1, 0, 0)">Results Chain v 2.0</text></g></g></g><g transform="matrix(1, 0, 0, 1, 870, 120)" class="no-tooltips area excluded"><g transform="matrix(1, 0, 0, 1, 0, 0)"><path stroke="#B2DFB2" fill="#B2DFB2" stroke-width="3" stroke-linecap="butt" stroke-linejoin="miter" stroke-miterlimit="10" d="M 5,0 L 172,0 C 174.23857625084602,0 177,2.761423749153968 177,5 L 177,142 C 177,144.23857625084602 174.23857625084602,147 172,147 L 5,147 C 2.761423749153968,147 0,144.23857625084602 0,142 L 0,5 C 0,2.761423749153968 2.761423749153968,0 5,0 z" transform="matrix(1, 0, 0, 1, 1.5, 1.5)"/><g transform="matrix(1, 0, 0, 1, 6.261423749153968, 6.261423749153968)"><text x="83.73857625084602" y="13.00396728515625" style="font: italic bold 15px &quot;Roboto&quot;" text-anchor="middle" fill="#1C1C1C" transform="matrix(1, 0, 0, 1, 0, 0)">Conservation Scope:</text><text x="83.73857625084602" y="30.34259033203125" style="font: italic bold 15px &quot;Roboto&quot;" text-anchor="middle" fill="#1C1C1C" transform="matrix(1, 0, 0, 1, 0, 0)">Marine Resources</text></g></g></g><g transform="matrix(1, 0, 0, 1, 900, 165)"><g transform="matrix(1, 0, 0, 1, 0, 0)"><path stroke="#B2DFB2" fill="#FFFFFF" stroke-width="5" stroke-linecap="butt" stroke-linejoin="miter" stroke-miterlimit="10" d="M 57.5,0 C 89.25637311527063,0 115,12.312169379653177 115,27.5 C 115,42.68783062034682 89.25637311527063,55 57.5,55 C 25.74362688472937,55 0,42.68783062034682 0,27.5 C 0,12.312169379653177 25.74362688472937,0 57.5,0 z" transform="matrix(1, 0, 0, 1, 2.5, 2.5)" id="fos-miradimarineprogr-2019-00006:552f3584-638c-4f44-a9a7-6c9d12e920cb" data-identifier="E" data-name="Seabirds" data-diagram-factor-type="Target"/><text x="33.5" y="20.748730468749997" style="font: italic normal 12px &quot;Roboto&quot;" text-anchor="middle" fill="#1C1C1C" transform="matrix(1, 0, 0, 1, 26.5, 12.5)" class="no-tooltips">Seabirds</text><g transform="matrix(1, 0, 0, 1, 0, 24)"><path stroke="none" fill="#DDBA00" d="M 10,0 C 15.522847498307936,0 20,2.686291501015239 20,6 C 20,9.313708498984761 15.522847498307936,12 10,12 C 4.477152501692064,12 0,9.313708498984761 0,6 C 0,2.686291501015239 4.477152501692064,0 10,0 z" transform="matrix(1, 0, 0, 1, 0, 0)"/><text x="10" y="8.51220703125" style="font: 10px Roboto" text-anchor="middle" fill="black" transform="matrix(1, 0, 0, 1, 0, 0)" class="no-tooltips">F</text></g><g transform="matrix(1, 0, 0, 1, 0, 40)"><path stroke="none" fill="#8D74D8" d="M 20,20 L 0,20 L 10,0 z" transform="matrix(1, 0, 0, 1, 0, 0)"/><g transform="matrix(1, 0, 0, 1, 2.5, 7)" clip-path="path('M 0,0 L 10 0 L 10 10 L 0 10 z')"><image x="0" y="0" width="15" height="16" xlink:href="static/dist/assets/img/key-ecological-attribute.png" preserveAspectRatio="none" transform="matrix(1, 0, 0, 1, 0, 0)"/></g><g transform="matrix(1, 0, 0, 1, 5, 8)" clip-path="path('M 0,0 L 10 0 L 10 10 L 0 10 z')"/></g><g transform="matrix(1, 0, 0, 1, 21, 40)"><path stroke="none" fill="#42AEC9" d="M 39,0 C 60.539105243400954,0 78,4.477152501692064 78,10 C 78,15.522847498307936 60.539105243400954,20 39,20 C 17.46089475659905,20 0,15.522847498307936 0,10 C 0,4.477152501692064 17.46089475659905,0 39,0 z" transform="matrix(1, 0, 0, 1, 0, 0)"/><text x="37" y="10.2146484375" style="font: 12px Roboto" text-anchor="middle" fill="black" transform="matrix(1, 0, 0, 1, 2, 4.190234374999999)" class="no-tooltips">E</text></g></g></g><g transform="matrix(1, 0, 0, 1, 555, 150)"><g transform="matrix(1, 0, 0, 1, 0, 0)"><path stroke="#DF88D5" fill="#FFFFFF" stroke-width="5" stroke-linecap="butt" stroke-linejoin="miter" stroke-miterlimit="10" d="M 0,0 L 115,0 L 115,85 L 0,85 z" transform="matrix(1, 0, 0, 1, 2.5, 2.5)" id="fos-miradimarineprogr-2019-00006:f09e54de-9b87-4084-b0d8-bef187ac270d" data-identifier="" data-name="Rats eliminated from key islands" data-diagram-factor-type="Threat Reduction Result"/><g transform="matrix(1, 0, 0, 1, 8.5, 8.5)"><text x="51.5" y="33.095117187499994" style="font: normal normal 12px &quot;Roboto&quot;" text-anchor="middle" fill="#1C1C1C" transform="matrix(1, 0, 0, 1, 0, 0)" class="no-tooltips">Rats eliminated</text><text x="51.5" y="46.7146484375" style="font: normal normal 12px &quot;Roboto&quot;" text-anchor="middle" fill="#1C1C1C" transform="matrix(1, 0, 0, 1, 0, 0)" class="no-tooltips">from key islands</text></g><g transform="matrix(1, 0, 0, 1, 0, 70)"><path stroke="none" fill="#8D74D8" d="M 20,20 L 0,20 L 10,0 z" transform="matrix(1, 0, 0, 1, 0, 0)"/><g transform="matrix(1, 0, 0, 1, 5, 8)" clip-path="path('M 0,0 L 10 0 L 10 10 L 0 10 z')"/></g><g transform="matrix(1, 0, 0, 1, 21, 70)"><path stroke="none" fill="#42AEC9" d="M 0,0 L 78,0 L 78,20 L 0,20 z" transform="matrix(1, 0, 0, 1, 0, 0)"/><text x="37" y="10.2146484375" style="font: 12px Roboto" text-anchor="middle" fill="black" transform="matrix(1, 0, 0, 1, 2, 4.190234374999999)" class="no-tooltips">R2</text></g><g transform="matrix(1, 0, 0, 1, 100, 0)"><path stroke="none" fill="#DDBA00" d="M 0,0 L 20,0 L 20,20 L 0,20 z" transform="matrix(1, 0, 0, 1, 0, 0)"/><text x="10" y="10.2146484375" style="font: 12px Roboto" text-anchor="middle" fill="white" transform="matrix(1, 0, 0, 1, 0, 4)" class="no-tooltips">±</text></g></g></g><g transform="matrix(1, 0, 0, 1, 375, 45)"><g transform="matrix(1, 0, 0, 1, 0, 0)"><path stroke="#F4DC5B" fill="#FFFFFF" stroke-width="5" stroke-linecap="butt" stroke-linejoin="miter" stroke-miterlimit="10" d="M 145,27.5 L 108.75,55 L 36.25,55 L 0,27.5 L 36.25,0 L 108.75,0 L 145,27.5 z" transform="matrix(1, 0, 0, 1, 2.5, 2.5)" id="fos-miradimarineprogr-2019-00006:e6883bc8-1563-42b3-9122-feb2a07daaa4" data-identifier="03" data-name="Trap rats on key islands" data-diagram-factor-type="Strategy"/><g transform="matrix(1, 0, 0, 1, 32, 3.5)"><text x="43" y="23.25126953125" style="font: italic normal 12px &quot;Roboto&quot;" text-anchor="middle" fill="#1C1C1C" transform="matrix(1, 0, 0, 1, 0, 0)" class="no-tooltips">Trap rats on key</text><text x="43" y="36.24619140625" style="font: italic normal 12px &quot;Roboto&quot;" text-anchor="middle" fill="#1C1C1C" transform="matrix(1, 0, 0, 1, 0, 0)" class="no-tooltips">islands</text></g><g transform="matrix(1, 0, 0, 1, 0, 24)"><path stroke="none" fill="#A6D4A5" d="M 10,0 C 15.522847498307936,0 20,2.686291501015239 20,6 C 20,9.313708498984761 15.522847498307936,12 10,12 C 4.477152501692064,12 0,9.313708498984761 0,6 C 0,2.686291501015239 4.477152501692064,0 10,0 z" transform="matrix(1, 0, 0, 1, 0, 0)"/><text x="10" y="8.51220703125" style="font: 10px Roboto" text-anchor="middle" fill="black" transform="matrix(1, 0, 0, 1, 0, 0)" class="no-tooltips">E</text></g><g transform="matrix(1, 0, 0, 1, 75, 40)"><path stroke="none" fill="#F4DC5B" d="M 5,0 L 50,0 C 52.23857625084603,0 55,2.761423749153968 55,5 L 55,15 C 55,17.23857625084603 52.23857625084603,20 50,20 L 5,20 C 2.761423749153968,20 0,17.23857625084603 0,15 L 0,5 C 0,2.761423749153968 2.761423749153968,0 5,0 z" transform="matrix(1, 0, 0, 1, 0, 0)"/><text x="16.962890625" y="10.2146484375" style="font: 12px Roboto" text-anchor="middle" fill="black" transform="matrix(1, 0, 0, 1, 10.537109375, 4.190234374999999)" class="no-tooltips">4 Acts</text></g><g transform="matrix(1, 0, 0, 1, 130, 0)"><path stroke="none" fill="#CC3333" d="M 0,0 L 20,0 L 20,20 L 0,20 z" transform="matrix(1, 0, 0, 1, 0, 0)"/><text x="10" y="10.2146484375" style="font: 12px Roboto" text-anchor="middle" fill="white" transform="matrix(1, 0, 0, 1, 0, 4)" class="no-tooltips">-</text></g></g></g><g transform="matrix(1, 0, 0, 1, 390, 150)"><g transform="matrix(1, 0, 0, 1, 0, 0)"><path stroke="#9AD0E7" fill="#FFFFFF" stroke-width="5" stroke-linecap="butt" stroke-linejoin="miter" stroke-miterlimit="10" d="M 0,0 L 115,0 L 115,85 L 0,85 z" transform="matrix(1, 0, 0, 1, 2.5, 2.5)" id="fos-miradimarineprogr-2019-00006:2c5c3d60-b5d4-46e1-8dbf-d6d5feefef05" data-identifier="" data-name="No new rats access islands" data-diagram-factor-type="Intermediate Result"/><g transform="matrix(1, 0, 0, 1, 8.5, 8.5)"><text x="51.5" y="33.095117187499994" style="font: normal normal 12px &quot;Roboto&quot;" text-anchor="middle" fill="#1C1C1C" transform="matrix(1, 0, 0, 1, 0, 0)" class="no-tooltips">No new rats</text><text x="51.5" y="46.7146484375" style="font: normal normal 12px &quot;Roboto&quot;" text-anchor="middle" fill="#1C1C1C" transform="matrix(1, 0, 0, 1, 0, 0)" class="no-tooltips">access islands</text></g><g transform="matrix(1, 0, 0, 1, 100, 0)"><path stroke="none" fill="#959393" d="M 0,0 L 20,0 L 20,20 L 0,20 z" transform="matrix(1, 0, 0, 1, 0, 0)"/><text x="10" y="10.2146484375" style="font: 12px Roboto" text-anchor="middle" fill="white" transform="matrix(1, 0, 0, 1, 0, 4)" class="no-tooltips">?</text></g></g></g><g transform="matrix(1, 0, 0, 1, 15, 390)"><g transform="matrix(1, 0, 0, 1, 0, 0)"><path stroke="#F4DC5B" fill="#FFFFFF" stroke-width="5" stroke-linecap="butt" stroke-linejoin="miter" stroke-miterlimit="10" d="M 175,27.5 L 131.25,55 L 43.75,55 L 0,27.5 L 43.75,0 L 131.25,0 L 175,27.5 z" transform="matrix(1, 0, 0, 1, 2.5, 2.5)" id="fos-miradimarineprogr-2019-00006:a6f8300a-e33d-4ec9-bb09-a8f4a0730a32" data-identifier="02" data-name="Policy to mandate rat barriers on visiting boats" data-diagram-factor-type="Strategy"/><g transform="matrix(1, 0, 0, 1, 39.5, 3.5)"><text x="50.5" y="16.75380859375" style="font: italic normal 12px &quot;Roboto&quot;" text-anchor="middle" fill="#1C1C1C" transform="matrix(1, 0, 0, 1, 0, 0)" class="no-tooltips">Policy to mandate</text><text x="50.5" y="29.748730468749997" style="font: italic normal 12px &quot;Roboto&quot;" text-anchor="middle" fill="#1C1C1C" transform="matrix(1, 0, 0, 1, 0, 0)" class="no-tooltips">rat barriers on</text><text x="50.5" y="42.74365234375" style="font: italic normal 12px &quot;Roboto&quot;" text-anchor="middle" fill="#1C1C1C" transform="matrix(1, 0, 0, 1, 0, 0)" class="no-tooltips">visiting boats</text></g><g transform="matrix(1, 0, 0, 1, 0, 24)"><path stroke="none" fill="#A6D4A5" d="M 10,0 C 15.522847498307936,0 20,2.686291501015239 20,6 C 20,9.313708498984761 15.522847498307936,12 10,12 C 4.477152501692064,12 0,9.313708498984761 0,6 C 0,2.686291501015239 4.477152501692064,0 10,0 z" transform="matrix(1, 0, 0, 1, 0, 0)"/><text x="10" y="8.51220703125" style="font: 10px Roboto" text-anchor="middle" fill="black" transform="matrix(1, 0, 0, 1, 0, 0)" class="no-tooltips">E</text></g><g transform="matrix(1, 0, 0, 1, 90, 40)"><path stroke="none" fill="#F4DC5B" d="M 5,0 L 65,0 C 67.23857625084604,0 70,2.761423749153968 70,5 L 70,15 C 70,17.23857625084603 67.23857625084604,20 65,20 L 5,20 C 2.761423749153968,20 0,17.23857625084603 0,15 L 0,5 C 0,2.761423749153968 2.761423749153968,0 5,0 z" transform="matrix(1, 0, 0, 1, 0, 0)"/><text x="16.962890625" y="10.2146484375" style="font: 12px Roboto" text-anchor="middle" fill="black" transform="matrix(1, 0, 0, 1, 18.037109375, 4.190234374999999)" class="no-tooltips">4 Acts</text></g><g transform="matrix(1, 0, 0, 1, 160, 0)"><path stroke="none" fill="#037429" d="M 0,0 L 20,0 L 20,20 L 0,20 z" transform="matrix(1, 0, 0, 1, 0, 0)"/><text x="10" y="10.2146484375" style="font: 12px Roboto" text-anchor="middle" fill="white" transform="matrix(1, 0, 0, 1, 0, 4)" class="no-tooltips">++</text></g></g></g><g transform="matrix(1, 0, 0, 1, 225, 150)"><g transform="matrix(1, 0, 0, 1, 0, 0)"><path stroke="#9AD0E7" fill="#FFFFFF" stroke-width="5" stroke-linecap="butt" stroke-linejoin="miter" stroke-miterlimit="10" d="M 0,0 L 115,0 L 115,85 L 0,85 z" transform="matrix(1, 0, 0, 1, 2.5, 2.5)" id="fos-miradimarineprogr-2019-00006:af3bd02a-3665-4302-ba30-9f535141279b" data-identifier="" data-name="Boats have rat barriers in place" data-diagram-factor-type="Intermediate Result"/><g transform="matrix(1, 0, 0, 1, 8.5, 8.5)"><text x="51.5" y="33.095117187499994" style="font: normal normal 12px &quot;Roboto&quot;" text-anchor="middle" fill="#1C1C1C" transform="matrix(1, 0, 0, 1, 0, 0)" class="no-tooltips">Boats have rat</text><text x="51.5" y="46.7146484375" style="font: normal normal 12px &quot;Roboto&quot;" text-anchor="middle" fill="#1C1C1C" transform="matrix(1, 0, 0, 1, 0, 0)" class="no-tooltips">barriers in place</text></g><g transform="matrix(1, 0, 0, 1, 0, 70)"><path stroke="none" fill="#8D74D8" d="M 20,20 L 0,20 L 10,0 z" transform="matrix(1, 0, 0, 1, 0, 0)"/><g transform="matrix(1, 0, 0, 1, 5, 8)" clip-path="path('M 0,0 L 10 0 L 10 10 L 0 10 z')"/></g><g transform="matrix(1, 0, 0, 1, 21, 70)"><path stroke="none" fill="#42AEC9" d="M 0,0 L 78,0 L 78,20 L 0,20 z" transform="matrix(1, 0, 0, 1, 0, 0)"/><text x="37" y="10.2146484375" style="font: 12px Roboto" text-anchor="middle" fill="black" transform="matrix(1, 0, 0, 1, 2, 4.190234374999999)" class="no-tooltips">R1</text></g><g transform="matrix(1, 0, 0, 1, 100, 0)"><path stroke="none" fill="#037429" d="M 0,0 L 20,0 L 20,20 L 0,20 z" transform="matrix(1, 0, 0, 1, 0, 0)"/><text x="10" y="10.2146484375" style="font: 12px Roboto" text-anchor="middle" fill="white" transform="matrix(1, 0, 0, 1, 0, 4)" class="no-tooltips">++</text></g></g></g><g transform="matrix(1, 0, 0, 1, 60, 150)"><g transform="matrix(1, 0, 0, 1, 0, 0)"><path stroke="#9AD0E7" fill="#FFFFFF" stroke-width="5" stroke-linecap="butt" stroke-linejoin="miter" stroke-miterlimit="10" d="M 0,0 L 115,0 L 115,85 L 0,85 z" transform="matrix(1, 0, 0, 1, 2.5, 2.5)" id="fos-miradimarineprogr-2019-00006:86913263-1c0b-45b0-b1db-07fe5e454246" data-identifier="" data-name="Eco tour groups from mainland want &quot;green&quot; tours" data-diagram-factor-type="Intermediate Result"/><g transform="matrix(1, 0, 0, 1, 8.5, 8.5)"><text x="51.5" y="26.2853515625" style="font: normal normal 12px &quot;Roboto&quot;" text-anchor="middle" fill="#1C1C1C" transform="matrix(1, 0, 0, 1, 0, 0)" class="no-tooltips">Eco tour groups</text><text x="51.5" y="39.904882812500006" style="font: normal normal 12px &quot;Roboto&quot;" text-anchor="middle" fill="#1C1C1C" transform="matrix(1, 0, 0, 1, 0, 0)" class="no-tooltips">from mainland</text><text x="51.5" y="53.5244140625" style="font: normal normal 12px &quot;Roboto&quot;" text-anchor="middle" fill="#1C1C1C" transform="matrix(1, 0, 0, 1, 0, 0)" class="no-tooltips">want "green" tours</text></g></g></g><g transform="matrix(1, 0, 0, 1, 720, 150)"><g transform="matrix(1, 0, 0, 1, 0, 0)"><path stroke="#739B94" fill="#FFFFFF" stroke-width="5" stroke-linecap="butt" stroke-linejoin="miter" stroke-miterlimit="10" d="M 0,0 L 115,0 L 115,85 L 0,85 z" transform="matrix(1, 0, 0, 1, 2.5, 2.5)" id="fos-miradimarineprogr-2019-00006:eba8ca88-dd5e-4390-8850-63f7a433193a" data-identifier="" data-name="Predation on seabird nests eliminated" data-diagram-factor-type="Biophysical Result"/><g transform="matrix(1, 0, 0, 1, 8.5, 8.5)"><text x="51.5" y="26.2853515625" style="font: normal normal 12px &quot;Roboto&quot;" text-anchor="middle" fill="#1C1C1C" transform="matrix(1, 0, 0, 1, 0, 0)" class="no-tooltips">Predation on</text><text x="51.5" y="39.904882812500006" style="font: normal normal 12px &quot;Roboto&quot;" text-anchor="middle" fill="#1C1C1C" transform="matrix(1, 0, 0, 1, 0, 0)" class="no-tooltips">seabird nests</text><text x="51.5" y="53.5244140625" style="font: normal normal 12px &quot;Roboto&quot;" text-anchor="middle" fill="#1C1C1C" transform="matrix(1, 0, 0, 1, 0, 0)" class="no-tooltips">eliminated</text></g><g transform="matrix(1, 0, 0, 1, 0, 70)"><path stroke="none" fill="#8D74D8" d="M 20,20 L 0,20 L 10,0 z" transform="matrix(1, 0, 0, 1, 0, 0)"/><g transform="matrix(1, 0, 0, 1, 5, 8)" clip-path="path('M 0,0 L 10 0 L 10 10 L 0 10 z')"/></g><g transform="matrix(1, 0, 0, 1, 100, 0)"><path stroke="none" fill="#DDBA00" d="M 0,0 L 20,0 L 20,20 L 0,20 z" transform="matrix(1, 0, 0, 1, 0, 0)"/><text x="10" y="10.2146484375" style="font: 12px Roboto" text-anchor="middle" fill="white" transform="matrix(1, 0, 0, 1, 0, 4)" class="no-tooltips">±</text></g></g></g><g transform="matrix(1, 0, 0, 1, 225, 390)"><g transform="matrix(1, 0, 0, 1, 0, 0)"><path stroke="#9AD0E7" fill="#FFFFFF" stroke-width="5" stroke-linecap="butt" stroke-linejoin="miter" stroke-miterlimit="10" d="M 0,0 L 115,0 L 115,55 L 0,55 z" transform="matrix(1, 0, 0, 1, 2.5, 2.5)" id="fos-miradimarineprogr-2019-00006:ccd79429-ac56-465d-82db-73c424f18167" data-identifier="" data-name="Government enacts &quot;good&quot; policy" data-diagram-factor-type="Intermediate Result"/><g transform="matrix(1, 0, 0, 1, 8.5, 8.5)"><text x="51.5" y="11.2853515625" style="font: normal normal 12px &quot;Roboto&quot;" text-anchor="middle" fill="#1C1C1C" transform="matrix(1, 0, 0, 1, 0, 0)" class="no-tooltips">Government</text><text x="51.5" y="24.9048828125" style="font: normal normal 12px &quot;Roboto&quot;" text-anchor="middle" fill="#1C1C1C" transform="matrix(1, 0, 0, 1, 0, 0)" class="no-tooltips">enacts "good"</text><text x="51.5" y="38.5244140625" style="font: normal normal 12px &quot;Roboto&quot;" text-anchor="middle" fill="#1C1C1C" transform="matrix(1, 0, 0, 1, 0, 0)" class="no-tooltips">policy</text></g><g transform="matrix(1, 0, 0, 1, 100, 0)"><path stroke="none" fill="#037429" d="M 0,0 L 20,0 L 20,20 L 0,20 z" transform="matrix(1, 0, 0, 1, 0, 0)"/><text x="10" y="10.2146484375" style="font: 12px Roboto" text-anchor="middle" fill="white" transform="matrix(1, 0, 0, 1, 0, 4)" class="no-tooltips">++</text></g></g></g><g transform="matrix(1, 0, 0, 1, 225, 300)"><g transform="matrix(1, 0, 0, 1, 0, 0)"><path stroke="#9AD0E7" fill="#FFFFFF" stroke-width="5" stroke-linecap="butt" stroke-linejoin="miter" stroke-miterlimit="10" d="M 0,0 L 115,0 L 115,55 L 0,55 z" transform="matrix(1, 0, 0, 1, 2.5, 2.5)" id="fos-miradimarineprogr-2019-00006:9881bf2e-33e2-4cea-8458-78b34946ef63" data-identifier="" data-name="Government enforces policy" data-diagram-factor-type="Intermediate Result"/><g transform="matrix(1, 0, 0, 1, 8.5, 8.5)"><text x="51.5" y="18.0951171875" style="font: normal normal 12px &quot;Roboto&quot;" text-anchor="middle" fill="#1C1C1C" transform="matrix(1, 0, 0, 1, 0, 0)" class="no-tooltips">Government</text><text x="51.5" y="31.7146484375" style="font: normal normal 12px &quot;Roboto&quot;" text-anchor="middle" fill="#1C1C1C" transform="matrix(1, 0, 0, 1, 0, 0)" class="no-tooltips">enforces policy</text></g><g transform="matrix(1, 0, 0, 1, 100, 0)"><path stroke="none" fill="#DDBA00" d="M 0,0 L 20,0 L 20,20 L 0,20 z" transform="matrix(1, 0, 0, 1, 0, 0)"/><text x="10" y="10.2146484375" style="font: 12px Roboto" text-anchor="middle" fill="white" transform="matrix(1, 0, 0, 1, 0, 4)" class="no-tooltips">±</text></g></g></g><g transform="matrix(1, 0, 0, 1, 505, 190)"><path stroke="#757575" fill="none" stroke-width="2" stroke-linecap="butt" stroke-linejoin="miter" stroke-miterlimit="10" d="M 0,0 L 45,0" transform="matrix(1, 0, 0, 1, 5, 5)"/><path stroke="transparent" fill="none" stroke-width="10" stroke-linecap="butt" stroke-linejoin="miter" stroke-miterlimit="10" d="M 0,0 L 45,0" transform="matrix(1, 0, 0, 1, 5, 5)"/><path stroke="#757575" fill="#757575" stroke-width="1" stroke-linecap="butt" stroke-linejoin="miter" stroke-miterlimit="10" d="M 0,0 L 8,4 L 0,8 L 2,4 z" transform="matrix(1, 0, 0, 1, 41.5, 1)"/></g><g transform="matrix(1, 0, 0, 1, 340, 190)"><path stroke="#757575" fill="none" stroke-width="2" stroke-linecap="butt" stroke-linejoin="miter" stroke-miterlimit="10" stroke-dasharray="5,5" stroke-dashoffset="0" d="M 0,0 L 45,0" transform="matrix(1, 0, 0, 1, 5, 5)"/><path stroke="transparent" fill="none" stroke-width="10" stroke-linecap="butt" stroke-linejoin="miter" stroke-miterlimit="10" d="M 0,0 L 45,0" transform="matrix(1, 0, 0, 1, 5, 5)"/><path stroke="#757575" fill="white" stroke-width="1" stroke-linecap="butt" stroke-linejoin="miter" stroke-miterlimit="10" d="M 0,0 L 8,4 L 0,8 L 2,4 z" transform="matrix(1, 0, 0, 1, 41.5, 1)"/></g><g transform="matrix(1, 0, 0, 1, 520, 70)"><path stroke="#757575" fill="none" stroke-width="2" stroke-linecap="butt" stroke-linejoin="miter" stroke-miterlimit="10" d="M 0,0 L 70,0 Q 90,0 90,20 L 90,75" transform="matrix(1, 0, 0, 1, 5, 5)"/><path stroke="transparent" fill="none" stroke-width="10" stroke-linecap="butt" stroke-linejoin="miter" stroke-miterlimit="10" d="M 0,0 L 70,0 Q 90,0 90,20 L 90,75" transform="matrix(1, 0, 0, 1, 5, 5)"/><path stroke="#757575" fill="#757575" stroke-width="1" stroke-linecap="butt" stroke-linejoin="miter" stroke-miterlimit="10" d="M 0,0 L 8,4 L 0,8 L 2,4 z" transform="matrix(0, 1, -1, 0, 99, 71.5)"/></g><g transform="matrix(1, 0, 0, 1, 175, 190)"><path stroke="#757575" fill="none" stroke-width="2" stroke-linecap="butt" stroke-linejoin="miter" stroke-miterlimit="10" d="M 0,0 L 45,0" transform="matrix(1, 0, 0, 1, 5, 5)"/><path stroke="transparent" fill="none" stroke-width="10" stroke-linecap="butt" stroke-linejoin="miter" stroke-miterlimit="10" d="M 0,0 L 45,0" transform="matrix(1, 0, 0, 1, 5, 5)"/><path stroke="#757575" fill="#757575" stroke-width="1" stroke-linecap="butt" stroke-linejoin="miter" stroke-miterlimit="10" d="M 0,0 L 8,4 L 0,8 L 2,4 z" transform="matrix(1, 0, 0, 1, 41.5, 1)"/></g><g transform="matrix(1, 0, 0, 1, 670, 190)"><path stroke="#757575" fill="none" stroke-width="2" stroke-linecap="butt" stroke-linejoin="miter" stroke-miterlimit="10" d="M 0,0 L 45,0" transform="matrix(1, 0, 0, 1, 5, 5)"/><path stroke="transparent" fill="none" stroke-width="10" stroke-linecap="butt" stroke-linejoin="miter" stroke-miterlimit="10" d="M 0,0 L 45,0" transform="matrix(1, 0, 0, 1, 5, 5)"/><path stroke="#757575" fill="#757575" stroke-width="1" stroke-linecap="butt" stroke-linejoin="miter" stroke-miterlimit="10" d="M 0,0 L 8,4 L 0,8 L 2,4 z" transform="matrix(1, 0, 0, 1, 41.5, 1)"/></g><g transform="matrix(1, 0, 0, 1, 835, 190)"><path stroke="#757575" fill="none" stroke-width="2" stroke-linecap="butt" stroke-linejoin="miter" stroke-miterlimit="10" d="M 0,0 L 60,0" transform="matrix(1, 0, 0, 1, 5, 5)"/><path stroke="transparent" fill="none" stroke-width="10" stroke-linecap="butt" stroke-linejoin="miter" stroke-miterlimit="10" d="M 0,0 L 60,0" transform="matrix(1, 0, 0, 1, 5, 5)"/><path stroke="#757575" fill="#757575" stroke-width="1" stroke-linecap="butt" stroke-linejoin="miter" stroke-miterlimit="10" d="M 0,0 L 8,4 L 0,8 L 2,4 z" transform="matrix(1, 0, 0, 1, 56.5, 1)"/></g><g transform="matrix(1, 0, 0, 1, 190, 415)"><path stroke="#757575" fill="none" stroke-width="2" stroke-linecap="butt" stroke-linejoin="miter" stroke-miterlimit="10" d="M 0,0 L 30,0" transform="matrix(1, 0, 0, 1, 5, 5)"/><path stroke="transparent" fill="none" stroke-width="10" stroke-linecap="butt" stroke-linejoin="miter" stroke-miterlimit="10" d="M 0,0 L 30,0" transform="matrix(1, 0, 0, 1, 5, 5)"/><path stroke="#757575" fill="#757575" stroke-width="1" stroke-linecap="butt" stroke-linejoin="miter" stroke-miterlimit="10" d="M 0,0 L 8,4 L 0,8 L 2,4 z" transform="matrix(1, 0, 0, 1, 26.5, 1)"/></g><g transform="matrix(1, 0, 0, 1, 280, 355)"><path stroke="#757575" fill="none" stroke-width="2" stroke-linecap="butt" stroke-linejoin="miter" stroke-miterlimit="10" d="M 0,30 L 0,0" transform="matrix(1, 0, 0, 1, 5, 5)"/><path stroke="transparent" fill="none" stroke-width="10" stroke-linecap="butt" stroke-linejoin="miter" stroke-miterlimit="10" d="M 0,30 L 0,0" transform="matrix(1, 0, 0, 1, 5, 5)"/><path stroke="#757575" fill="#757575" stroke-width="1" stroke-linecap="butt" stroke-linejoin="miter" stroke-miterlimit="10" d="M 0,0 L 8,4 L 0,8 L 2,4 z" transform="matrix(0, -1, 1, 0, 1, 13.5)"/></g><g transform="matrix(1, 0, 0, 1, 280, 235)"><path stroke="#757575" fill="none" stroke-width="2" stroke-linecap="butt" stroke-linejoin="miter" stroke-miterlimit="10" d="M 0,60 L 0,0" transform="matrix(1, 0, 0, 1, 5, 5)"/><path stroke="transparent" fill="none" stroke-width="10" stroke-linecap="butt" stroke-linejoin="miter" stroke-miterlimit="10" d="M 0,60 L 0,0" transform="matrix(1, 0, 0, 1, 5, 5)"/><path stroke="#757575" fill="#757575" stroke-width="1" stroke-linecap="butt" stroke-linejoin="miter" stroke-miterlimit="10" d="M 0,0 L 8,4 L 0,8 L 2,4 z" transform="matrix(0, -1, 1, 0, 1, 13.5)"/></g><g transform="matrix(1, 0, 0, 1, 360, 390)"><g transform="matrix(1, 0, 0, 1, 0, 0)"><path stroke="#F4DC5B" fill="#FFFFFF" stroke-width="3" stroke-linecap="butt" stroke-linejoin="miter" stroke-miterlimit="10" d="M 5,0 L 112,0 C 114.23857625084604,0 117,2.761423749153968 117,5 L 117,52 C 117,54.23857625084603 114.23857625084604,57 112,57 L 5,57 C 2.761423749153968,57 0,54.23857625084603 0,52 L 0,5 C 0,2.761423749153968 2.761423749153968,0 5,0 z" transform="matrix(1, 0, 0, 1, 1.5, 1.5)" id="fos-miradimarineprogr-2019-00006:8a8f41f0-89d6-4429-a552-10931b414462" data-identifier="R1-1" data-name="Research rat barrier technology to inform policy" data-diagram-factor-type="Activity"/><g transform="matrix(1, 0, 0, 1, 5.5, 1.5)"><text x="54.5" y="18.2853515625" style="font: normal normal 12px &quot;Roboto&quot;" text-anchor="middle" fill="#1C1C1C" transform="matrix(1, 0, 0, 1, 0, 0)" class="no-tooltips">Research rat barrier</text><text x="54.5" y="31.904882812500002" style="font: normal normal 12px &quot;Roboto&quot;" text-anchor="middle" fill="#1C1C1C" transform="matrix(1, 0, 0, 1, 0, 0)" class="no-tooltips">technology to</text><text x="54.5" y="45.5244140625" style="font: normal normal 12px &quot;Roboto&quot;" text-anchor="middle" fill="#1C1C1C" transform="matrix(1, 0, 0, 1, 0, 0)" class="no-tooltips">inform policy</text></g><g transform="matrix(1, 0, 0, 1, 100, 0)"><path stroke="none" fill="#037429" d="M 0,0 L 20,0 L 20,20 L 0,20 z" transform="matrix(1, 0, 0, 1, 0, 0)"/><text x="10" y="10.2146484375" style="font: 12px Roboto" text-anchor="middle" fill="white" transform="matrix(1, 0, 0, 1, 0, 4)" class="no-tooltips">++</text></g></g></g><g transform="matrix(1, 0, 0, 1, 360, 315)"><g transform="matrix(1, 0, 0, 1, 0, 0)"><path stroke="#F4DC5B" fill="#FFFFFF" stroke-width="3" stroke-linecap="butt" stroke-linejoin="miter" stroke-miterlimit="10" d="M 5,0 L 112,0 C 114.23857625084604,0 117,2.761423749153968 117,5 L 117,22 C 117,24.23857625084603 114.23857625084604,27 112,27 L 5,27 C 2.761423749153968,27 0,24.23857625084603 0,22 L 0,5 C 0,2.761423749153968 2.761423749153968,0 5,0 z" transform="matrix(1, 0, 0, 1, 1.5, 1.5)" id="fos-miradimarineprogr-2019-00006:f53cb075-0c75-47a4-85cf-e5053a0c31b4" data-identifier="R1-2" data-name="Educate ministry officials" data-diagram-factor-type="Activity"/><g transform="matrix(1, 0, 0, 1, 5.5, 1.5)" clip-path="path('M 0,0 L 109 0 L 109 27 L 0 27 z')"><text x="54.5" y="10.2146484375" style="font: normal normal 12px &quot;Roboto&quot;" text-anchor="middle" fill="#1C1C1C" transform="matrix(1, 0, 0, 1, 0, 0)" class="no-tooltips">Educate ministry</text><text x="54.5" y="23.834179687499997" style="font: normal normal 12px &quot;Roboto&quot;" text-anchor="middle" fill="#1C1C1C" transform="matrix(1, 0, 0, 1, 0, 0)" class="no-tooltips">officials</text></g><g transform="matrix(1, 0, 0, 1, 100, 0)"><path stroke="none" fill="#037429" d="M 0,0 L 20,0 L 20,20 L 0,20 z" transform="matrix(1, 0, 0, 1, 0, 0)"/><text x="10" y="10.2146484375" style="font: 12px Roboto" text-anchor="middle" fill="white" transform="matrix(1, 0, 0, 1, 0, 4)" class="no-tooltips">++</text></g></g></g><g transform="matrix(1, 0, 0, 1, 60, 105)"><g transform="matrix(1, 0, 0, 1, 0, 0)"><path stroke="#F4DC5B" fill="#FFFFFF" stroke-width="3" stroke-linecap="butt" stroke-linejoin="miter" stroke-miterlimit="10" d="M 5,0 L 142,0 C 144.23857625084602,0 147,2.761423749153968 147,5 L 147,22 C 147,24.23857625084603 144.23857625084602,27 142,27 L 5,27 C 2.761423749153968,27 0,24.23857625084603 0,22 L 0,5 C 0,2.761423749153968 2.761423749153968,0 5,0 z" transform="matrix(1, 0, 0, 1, 1.5, 1.5)" id="fos-miradimarineprogr-2019-00006:307c1ad2-35f8-4f3c-9356-711e41322242" data-identifier="R1-3" data-name="Raise awareness with tourists (if needed)" data-diagram-factor-type="Activity"/><g transform="matrix(1, 0, 0, 1, 5.5, 1.5)" clip-path="path('M 0,0 L 139 0 L 139 27 L 0 27 z')"><text x="69.5" y="10.2146484375" style="font: normal normal 12px &quot;Roboto&quot;" text-anchor="middle" fill="#1C1C1C" transform="matrix(1, 0, 0, 1, 0, 0)" class="no-tooltips">Raise awareness with</text><text x="69.5" y="23.834179687499997" style="font: normal normal 12px &quot;Roboto&quot;" text-anchor="middle" fill="#1C1C1C" transform="matrix(1, 0, 0, 1, 0, 0)" class="no-tooltips">tourists (if needed)</text></g><g transform="matrix(1, 0, 0, 1, 130, 0)"><path stroke="none" fill="#A6D4A5" d="M 0,0 L 20,0 L 20,20 L 0,20 z" transform="matrix(1, 0, 0, 1, 0, 0)"/><text x="10" y="10.2146484375" style="font: 12px Roboto" text-anchor="middle" fill="white" transform="matrix(1, 0, 0, 1, 0, 4)" class="no-tooltips">+</text></g></g></g><g transform="matrix(1, 0, 0, 1, 540, 30)"><g transform="matrix(1, 0, 0, 1, 0, 0)"><path stroke="#F4DC5B" fill="#FFFFFF" stroke-width="3" stroke-linecap="butt" stroke-linejoin="miter" stroke-miterlimit="10" d="M 5,0 L 142,0 C 144.23857625084602,0 147,2.761423749153968 147,5 L 147,22 C 147,24.23857625084603 144.23857625084602,27 142,27 L 5,27 C 2.761423749153968,27 0,24.23857625084603 0,22 L 0,5 C 0,2.761423749153968 2.761423749153968,0 5,0 z" transform="matrix(1, 0, 0, 1, 1.5, 1.5)" id="fos-miradimarineprogr-2019-00006:f0752a84-df0f-486b-bca8-d7e4f76929cb" data-identifier="R2-1" data-name="Select priority islands for rat elimination" data-diagram-factor-type="Activity"/><g transform="matrix(1, 0, 0, 1, 5.5, 1.5)" clip-path="path('M 0,0 L 139 0 L 139 27 L 0 27 z')"><text x="69.5" y="10.2146484375" style="font: normal normal 12px &quot;Roboto&quot;" text-anchor="middle" fill="#1C1C1C" transform="matrix(1, 0, 0, 1, 0, 0)" class="no-tooltips">Select priority islands for</text><text x="69.5" y="23.834179687499997" style="font: normal normal 12px &quot;Roboto&quot;" text-anchor="middle" fill="#1C1C1C" transform="matrix(1, 0, 0, 1, 0, 0)" class="no-tooltips">rat elimination</text></g><g transform="matrix(1, 0, 0, 1, 130, 0)"><path stroke="none" fill="#037429" d="M 0,0 L 20,0 L 20,20 L 0,20 z" transform="matrix(1, 0, 0, 1, 0, 0)"/><text x="10" y="10.2146484375" style="font: 12px Roboto" text-anchor="middle" fill="white" transform="matrix(1, 0, 0, 1, 0, 4)" class="no-tooltips">++</text></g></g></g><g transform="matrix(1, 0, 0, 1, 540, 60)"><g transform="matrix(1, 0, 0, 1, 0, 0)"><path stroke="#F4DC5B" fill="#FFFFFF" stroke-width="3" stroke-linecap="butt" stroke-linejoin="miter" stroke-miterlimit="10" d="M 5,0 L 142,0 C 144.23857625084602,0 147,2.761423749153968 147,5 L 147,22 C 147,24.23857625084603 144.23857625084602,27 142,27 L 5,27 C 2.761423749153968,27 0,24.23857625084603 0,22 L 0,5 C 0,2.761423749153968 2.761423749153968,0 5,0 z" transform="matrix(1, 0, 0, 1, 1.5, 1.5)" id="fos-miradimarineprogr-2019-00006:6c5a05c4-d616-426b-b847-abb019615f71" data-identifier="R2-2" data-name="Survey islands to determine suitability" data-diagram-factor-type="Activity"/><g transform="matrix(1, 0, 0, 1, 5.5, 1.5)" clip-path="path('M 0,0 L 139 0 L 139 27 L 0 27 z')"><text x="69.5" y="10.2146484375" style="font: normal normal 12px &quot;Roboto&quot;" text-anchor="middle" fill="#1C1C1C" transform="matrix(1, 0, 0, 1, 0, 0)" class="no-tooltips">Survey islands to</text><text x="69.5" y="23.834179687499997" style="font: normal normal 12px &quot;Roboto&quot;" text-anchor="middle" fill="#1C1C1C" transform="matrix(1, 0, 0, 1, 0, 0)" class="no-tooltips">determine suitability</text></g><g transform="matrix(1, 0, 0, 1, 130, 0)"><path stroke="none" fill="#037429" d="M 0,0 L 20,0 L 20,20 L 0,20 z" transform="matrix(1, 0, 0, 1, 0, 0)"/><text x="10" y="10.2146484375" style="font: 12px Roboto" text-anchor="middle" fill="white" transform="matrix(1, 0, 0, 1, 0, 4)" class="no-tooltips">++</text></g></g></g><g transform="matrix(1, 0, 0, 1, 540, 90)"><g transform="matrix(1, 0, 0, 1, 0, 0)"><path stroke="#F4DC5B" fill="#FFFFFF" stroke-width="3" stroke-linecap="butt" stroke-linejoin="miter" stroke-miterlimit="10" d="M 5,0 L 142,0 C 144.23857625084602,0 147,2.761423749153968 147,5 L 147,22 C 147,24.23857625084603 144.23857625084602,27 142,27 L 5,27 C 2.761423749153968,27 0,24.23857625084603 0,22 L 0,5 C 0,2.761423749153968 2.761423749153968,0 5,0 z" transform="matrix(1, 0, 0, 1, 1.5, 1.5)" id="fos-miradimarineprogr-2019-00006:2b0f39e4-e37b-4818-b294-bd23cc89a844" data-identifier="R2-3" data-name="Implement initial control efforts" data-diagram-factor-type="Activity"/><g transform="matrix(1, 0, 0, 1, 5.5, 1.5)" clip-path="path('M 0,0 L 139 0 L 139 27 L 0 27 z')"><text x="69.5" y="10.2146484375" style="font: normal normal 12px &quot;Roboto&quot;" text-anchor="middle" fill="#1C1C1C" transform="matrix(1, 0, 0, 1, 0, 0)" class="no-tooltips">Implement initial control</text><text x="69.5" y="23.834179687499997" style="font: normal normal 12px &quot;Roboto&quot;" text-anchor="middle" fill="#1C1C1C" transform="matrix(1, 0, 0, 1, 0, 0)" class="no-tooltips">efforts</text></g><g transform="matrix(1, 0, 0, 1, 130, 0)"><path stroke="none" fill="#DDBA00" d="M 0,0 L 20,0 L 20,20 L 0,20 z" transform="matrix(1, 0, 0, 1, 0, 0)"/><text x="10" y="10.2146484375" style="font: 12px Roboto" text-anchor="middle" fill="white" transform="matrix(1, 0, 0, 1, 0, 4)" class="no-tooltips">±</text></g></g></g><g transform="matrix(1, 0, 0, 1, 570, 255)"><g transform="matrix(1, 0, 0, 1, 0, 0)"><path stroke="#8D74D8" fill="#FFFFFF" stroke-width="3" stroke-linecap="butt" stroke-linejoin="miter" stroke-miterlimit="10" d="M 5,0 L 172,0 C 174.23857625084602,0 177,2.761423749153968 177,5 L 177,22 C 177,24.23857625084603 174.23857625084602,27 172,27 L 5,27 C 2.761423749153968,27 0,24.23857625084603 0,22 L 0,5 C 0,2.761423749153968 2.761423749153968,0 5,0 z" transform="matrix(1, 0, 0, 1, 1.5, 1.5)" id="fos-miradimarineprogr-2019-00006:cf16bc84-7267-4941-b102-44bfae4620e3" data-identifier="RM2" data-name="Count rats caught in traps / check for predation" data-diagram-factor-type="Monitoring Activity"/><g transform="matrix(1, 0, 0, 1, 5.5, 1.5)" clip-path="path('M 0,0 L 169 0 L 169 27 L 0 27 z')"><text x="84.5" y="10.2146484375" style="font: normal normal 12px &quot;Roboto&quot;" text-anchor="middle" fill="#1C1C1C" transform="matrix(1, 0, 0, 1, 0, 0)" class="no-tooltips">Count rats caught in traps /</text><text x="84.5" y="23.834179687499997" style="font: normal normal 12px &quot;Roboto&quot;" text-anchor="middle" fill="#1C1C1C" transform="matrix(1, 0, 0, 1, 0, 0)" class="no-tooltips">check for predation</text></g><g transform="matrix(1, 0, 0, 1, 160, 0)"><path stroke="none" fill="#A6D4A5" d="M 0,0 L 20,0 L 20,20 L 0,20 z" transform="matrix(1, 0, 0, 1, 0, 0)"/><text x="10" y="10.2146484375" style="font: 12px Roboto" text-anchor="middle" fill="white" transform="matrix(1, 0, 0, 1, 0, 4)" class="no-tooltips">+</text></g></g></g><g transform="matrix(1, 0, 0, 1, 135, 255)"><g transform="matrix(1, 0, 0, 1, 0, 0)"><path stroke="#8D74D8" fill="#FFFFFF" stroke-width="3" stroke-linecap="butt" stroke-linejoin="miter" stroke-miterlimit="10" d="M 5,0 L 142,0 C 144.23857625084602,0 147,2.761423749153968 147,5 L 147,22 C 147,24.23857625084603 144.23857625084602,27 142,27 L 5,27 C 2.761423749153968,27 0,24.23857625084603 0,22 L 0,5 C 0,2.761423749153968 2.761423749153968,0 5,0 z" transform="matrix(1, 0, 0, 1, 1.5, 1.5)" id="fos-miradimarineprogr-2019-00006:a69d4dbc-fe6b-4ba9-8b13-c569c8d3d063" data-identifier="RM1" data-name="Survey boats for rat barriers" data-diagram-factor-type="Monitoring Activity"/><g transform="matrix(1, 0, 0, 1, 5.5, 1.5)" clip-path="path('M 0,0 L 139 0 L 139 27 L 0 27 z')"><text x="69.5" y="10.2146484375" style="font: normal normal 12px &quot;Roboto&quot;" text-anchor="middle" fill="#1C1C1C" transform="matrix(1, 0, 0, 1, 0, 0)" class="no-tooltips">Survey boats for rat</text><text x="69.5" y="23.834179687499997" style="font: normal normal 12px &quot;Roboto&quot;" text-anchor="middle" fill="#1C1C1C" transform="matrix(1, 0, 0, 1, 0, 0)" class="no-tooltips">barriers</text></g><g transform="matrix(1, 0, 0, 1, 130, 0)"><path stroke="none" fill="#CC3333" d="M 0,0 L 20,0 L 20,20 L 0,20 z" transform="matrix(1, 0, 0, 1, 0, 0)"/><text x="10" y="10.2146484375" style="font: 12px Roboto" text-anchor="middle" fill="white" transform="matrix(1, 0, 0, 1, 0, 4)" class="no-tooltips">-</text></g></g></g></svg>